# Wavefront OBJ file automatically generated by Tiled2Unity

# Vertices (Count = 286)
v 0 -0.32 0
v -0.32 -0.32 0
v -0.32 0 0
v 0 0 0
v -0.64 -0.32 0
v -0.64 0 0
v -0.96 -0.32 0
v -0.96 0 0
v -1.28 -0.32 0
v -1.28 0 0
v -1.6 -0.32 0
v -1.6 0 0
v -1.92 -0.32 0
v -1.92 0 0
v -2.24 -0.32 0
v -2.24 0 0
v -2.56 -0.32 0
v -2.56 0 0
v -2.88 -0.32 0
v -2.88 0 0
v -3.2 -0.32 0
v -3.2 0 0
v -3.52 -0.32 0
v -3.52 0 0
v -3.84 -0.32 0
v -3.84 0 0
v -4.16 -0.32 0
v -4.16 0 0
v -4.48 -0.32 0
v -4.48 0 0
v -4.8 -0.32 0
v -4.8 0 0
v -5.12 -0.32 0
v -5.12 0 0
v -5.44 -0.32 0
v -5.44 0 0
v -5.76 -0.32 0
v -5.76 0 0
v -6.08 -0.32 0
v -6.08 0 0
v -6.4 -0.32 0
v -6.4 0 0
v -6.72 -0.32 0
v -6.72 0 0
v 0 -0.64 0
v -0.32 -0.64 0
v -0.64 -0.64 0
v -0.96 -0.64 0
v -1.28 -0.64 0
v -1.6 -0.64 0
v -1.92 -0.64 0
v -2.24 -0.64 0
v -2.56 -0.64 0
v -2.88 -0.64 0
v -3.2 -0.64 0
v -3.52 -0.64 0
v -3.84 -0.64 0
v -4.16 -0.64 0
v -4.48 -0.64 0
v -4.8 -0.64 0
v -5.12 -0.64 0
v -5.44 -0.64 0
v -5.76 -0.64 0
v -6.08 -0.64 0
v -6.4 -0.64 0
v -6.72 -0.64 0
v 0 -0.96 0
v -0.32 -0.96 0
v -0.64 -0.96 0
v -0.96 -0.96 0
v -1.28 -0.96 0
v -1.6 -0.96 0
v -1.92 -0.96 0
v -2.24 -0.96 0
v -2.56 -0.96 0
v -2.88 -0.96 0
v -3.2 -0.96 0
v -3.52 -0.96 0
v -3.84 -0.96 0
v -4.16 -0.96 0
v -4.48 -0.96 0
v -4.8 -0.96 0
v -5.12 -0.96 0
v -5.44 -0.96 0
v -5.76 -0.96 0
v -6.08 -0.96 0
v -6.4 -0.96 0
v -6.72 -0.96 0
v 0 -1.28 0
v -0.32 -1.28 0
v -0.64 -1.28 0
v -0.96 -1.28 0
v -1.28 -1.28 0
v -1.6 -1.28 0
v -1.92 -1.28 0
v -2.24 -1.28 0
v -2.56 -1.28 0
v -2.88 -1.28 0
v -3.2 -1.28 0
v -3.52 -1.28 0
v -3.84 -1.28 0
v -4.16 -1.28 0
v -4.48 -1.28 0
v -4.8 -1.28 0
v -5.12 -1.28 0
v -5.44 -1.28 0
v -5.76 -1.28 0
v -6.08 -1.28 0
v -6.4 -1.28 0
v -6.72 -1.28 0
v 0 -1.6 0
v -0.32 -1.6 0
v -0.64 -1.6 0
v -0.96 -1.6 0
v -1.28 -1.6 0
v -1.6 -1.6 0
v -1.92 -1.6 0
v -2.24 -1.6 0
v -2.56 -1.6 0
v -2.88 -1.6 0
v -3.2 -1.6 0
v -3.52 -1.6 0
v -3.84 -1.6 0
v -4.16 -1.6 0
v -4.48 -1.6 0
v -4.8 -1.6 0
v -5.12 -1.6 0
v -5.44 -1.6 0
v -5.76 -1.6 0
v -6.08 -1.6 0
v -6.4 -1.6 0
v -6.72 -1.6 0
v 0 -1.92 0
v -0.32 -1.92 0
v -0.64 -1.92 0
v -0.96 -1.92 0
v -1.28 -1.92 0
v -1.6 -1.92 0
v -1.92 -1.92 0
v -2.24 -1.92 0
v -2.56 -1.92 0
v -2.88 -1.92 0
v -3.2 -1.92 0
v -3.52 -1.92 0
v -3.84 -1.92 0
v -4.16 -1.92 0
v -4.48 -1.92 0
v -4.8 -1.92 0
v -5.12 -1.92 0
v -5.44 -1.92 0
v -5.76 -1.92 0
v -6.08 -1.92 0
v -6.4 -1.92 0
v -6.72 -1.92 0
v 0 -2.24 0
v -0.32 -2.24 0
v -0.64 -2.24 0
v -0.96 -2.24 0
v -1.28 -2.24 0
v -1.6 -2.24 0
v -1.92 -2.24 0
v -2.24 -2.24 0
v -2.56 -2.24 0
v -2.88 -2.24 0
v -3.2 -2.24 0
v -3.52 -2.24 0
v -3.84 -2.24 0
v -4.16 -2.24 0
v -4.48 -2.24 0
v -4.8 -2.24 0
v -5.12 -2.24 0
v -5.44 -2.24 0
v -5.76 -2.24 0
v -6.08 -2.24 0
v -6.4 -2.24 0
v -6.72 -2.24 0
v 0 -2.56 0
v -0.32 -2.56 0
v -0.64 -2.56 0
v -0.96 -2.56 0
v -1.28 -2.56 0
v -1.6 -2.56 0
v -1.92 -2.56 0
v -2.24 -2.56 0
v -2.56 -2.56 0
v -2.88 -2.56 0
v -3.2 -2.56 0
v -3.52 -2.56 0
v -3.84 -2.56 0
v -4.16 -2.56 0
v -4.48 -2.56 0
v -4.8 -2.56 0
v -5.12 -2.56 0
v -5.44 -2.56 0
v -5.76 -2.56 0
v -6.08 -2.56 0
v -6.4 -2.56 0
v -6.72 -2.56 0
v 0 -2.88 0
v -0.32 -2.88 0
v -0.64 -2.88 0
v -0.96 -2.88 0
v -1.28 -2.88 0
v -1.6 -2.88 0
v -1.92 -2.88 0
v -2.24 -2.88 0
v -2.56 -2.88 0
v -2.88 -2.88 0
v -3.2 -2.88 0
v -3.52 -2.88 0
v -3.84 -2.88 0
v -4.16 -2.88 0
v -4.48 -2.88 0
v -4.8 -2.88 0
v -5.12 -2.88 0
v -5.44 -2.88 0
v -5.76 -2.88 0
v -6.08 -2.88 0
v -6.4 -2.88 0
v -6.72 -2.88 0
v 0 -3.2 0
v -0.32 -3.2 0
v -0.64 -3.2 0
v -0.96 -3.2 0
v -1.28 -3.2 0
v -1.6 -3.2 0
v -1.92 -3.2 0
v -2.24 -3.2 0
v -2.56 -3.2 0
v -2.88 -3.2 0
v -3.2 -3.2 0
v -3.52 -3.2 0
v -3.84 -3.2 0
v -4.16 -3.2 0
v -4.48 -3.2 0
v -4.8 -3.2 0
v -5.12 -3.2 0
v -5.44 -3.2 0
v -5.76 -3.2 0
v -6.08 -3.2 0
v -6.4 -3.2 0
v -6.72 -3.2 0
v 0 -3.52 0
v -0.32 -3.52 0
v -0.64 -3.52 0
v -0.96 -3.52 0
v -1.28 -3.52 0
v -1.6 -3.52 0
v -1.92 -3.52 0
v -2.24 -3.52 0
v -2.56 -3.52 0
v -2.88 -3.52 0
v -3.2 -3.52 0
v -3.52 -3.52 0
v -3.84 -3.52 0
v -4.16 -3.52 0
v -4.48 -3.52 0
v -4.8 -3.52 0
v -5.12 -3.52 0
v -5.44 -3.52 0
v -5.76 -3.52 0
v -6.08 -3.52 0
v -6.4 -3.52 0
v -6.72 -3.52 0
v 0 -3.84 0
v -0.32 -3.84 0
v -0.64 -3.84 0
v -0.96 -3.84 0
v -1.28 -3.84 0
v -1.6 -3.84 0
v -1.92 -3.84 0
v -2.24 -3.84 0
v -2.56 -3.84 0
v -2.88 -3.84 0
v -3.2 -3.84 0
v -3.52 -3.84 0
v -3.84 -3.84 0
v -4.16 -3.84 0
v -4.48 -3.84 0
v -4.8 -3.84 0
v -5.12 -3.84 0
v -5.44 -3.84 0
v -5.76 -3.84 0
v -6.08 -3.84 0
v -6.4 -3.84 0
v -6.72 -3.84 0

# Texture cooridinates (Count = 120)
vt 0.6875076 0.1428658
vt 0.7499924 0.1428658
vt 0.7499924 0.214277
vt 0.6875076 0.214277
vt 0.6250076 0.0714373
vt 0.6874924 0.0714373
vt 0.6874924 0.1428484
vt 0.6250076 0.1428484
vt 0.6250076 8.702278E-06
vt 0.6874924 8.702278E-06
vt 0.6874924 0.07141984
vt 0.6250076 0.07141984
vt 0.1250076 0.3571516
vt 0.1874924 0.3571516
vt 0.1874924 0.4285627
vt 0.1250076 0.4285627
vt 0.1875076 0.285723
vt 0.2499924 0.285723
vt 0.2499924 0.3571342
vt 0.1875076 0.3571342
vt 0.8750076 0.5000087
vt 0.9374924 0.5000087
vt 0.9374924 0.5714198
vt 0.8750076 0.5714198
vt 0.9375076 0.5000087
vt 0.9999924 0.5000087
vt 0.9999924 0.5714198
vt 0.9375076 0.5714198
vt 0.3750076 0.5714373
vt 0.4374924 0.5714373
vt 0.4374924 0.6428484
vt 0.3750076 0.6428484
vt 0.8750076 0.4285802
vt 0.9374924 0.4285802
vt 0.9374924 0.4999913
vt 0.8750076 0.4999913
vt 0.9375076 0.4285802
vt 0.9999924 0.4285802
vt 0.9999924 0.4999913
vt 0.9375076 0.4999913
vt 0.8750076 0.3571516
vt 0.9374924 0.3571516
vt 0.9374924 0.4285627
vt 0.8750076 0.4285627
vt 0.9375076 0.3571516
vt 0.9999924 0.3571516
vt 0.9999924 0.4285627
vt 0.9375076 0.4285627
vt 0.1250076 0.2142944
vt 0.1874924 0.2142944
vt 0.1874924 0.2857056
vt 0.1250076 0.2857056
vt 0.5625076 0.5714373
vt 0.6249924 0.5714373
vt 0.6249924 0.6428484
vt 0.5625076 0.6428484
vt 0.8125076 0.7142944
vt 0.8749924 0.7142944
vt 0.8749924 0.7857056
vt 0.8125076 0.7857056
vt 0.3125076 0.6428659
vt 0.3749924 0.6428659
vt 0.3749924 0.714277
vt 0.3125076 0.714277
vt 0.8125076 0.6428659
vt 0.8749924 0.6428659
vt 0.8749924 0.714277
vt 0.8125076 0.714277
vt 0.2500076 0.5714373
vt 0.3124924 0.5714373
vt 0.3124924 0.6428484
vt 0.2500076 0.6428484
vt 0.3125076 0.5714373
vt 0.3749924 0.5714373
vt 0.3749924 0.6428484
vt 0.3125076 0.6428484
vt 0.8750076 0.285723
vt 0.9374924 0.285723
vt 0.9374924 0.3571342
vt 0.8750076 0.3571342
vt 0.8125076 0.5714373
vt 0.8749924 0.5714373
vt 0.8749924 0.6428484
vt 0.8125076 0.6428484
vt 0.2500076 0.5000087
vt 0.3124924 0.5000087
vt 0.3124924 0.5714198
vt 0.2500076 0.5714198
vt 0.3125076 0.5000087
vt 0.3749924 0.5000087
vt 0.3749924 0.5714198
vt 0.3125076 0.5714198
vt 0.2500076 0.4285802
vt 0.3124924 0.4285802
vt 0.3124924 0.4999913
vt 0.2500076 0.4999913
vt 0.3125076 0.4285802
vt 0.3749924 0.4285802
vt 0.3749924 0.4999913
vt 0.3125076 0.4999913
vt 7.629395E-06 0.3571516
vt 0.06249237 0.3571516
vt 0.06249237 0.4285627
vt 7.629395E-06 0.4285627
vt 7.629395E-06 0.285723
vt 0.06249237 0.285723
vt 0.06249237 0.3571342
vt 7.629395E-06 0.3571342
vt 7.629395E-06 0.2142944
vt 0.06249237 0.2142944
vt 0.06249237 0.2857056
vt 7.629395E-06 0.2857056
vt 7.629395E-06 0.1428658
vt 0.06249237 0.1428658
vt 0.06249237 0.214277
vt 7.629395E-06 0.214277
vt 0.4375076 0.8571516
vt 0.4999924 0.8571516
vt 0.4999924 0.9285627
vt 0.4375076 0.9285627

# Normal
vn 0 0 -1

# Groups (Count = 6)

g mesh_0001
f 1/1/1 2/2/1 3/3/1 4/4/1
f 2/1/1 5/2/1 6/3/1 3/4/1
f 5/1/1 7/2/1 8/3/1 6/4/1
f 7/1/1 9/2/1 10/3/1 8/4/1
f 9/1/1 11/2/1 12/3/1 10/4/1
f 11/1/1 13/2/1 14/3/1 12/4/1
f 13/1/1 15/2/1 16/3/1 14/4/1
f 15/1/1 17/2/1 18/3/1 16/4/1
f 17/1/1 19/2/1 20/3/1 18/4/1
f 19/1/1 21/2/1 22/3/1 20/4/1
f 21/1/1 23/2/1 24/3/1 22/4/1
f 23/1/1 25/2/1 26/3/1 24/4/1
f 25/1/1 27/2/1 28/3/1 26/4/1
f 27/1/1 29/2/1 30/3/1 28/4/1
f 29/1/1 31/2/1 32/3/1 30/4/1
f 31/1/1 33/2/1 34/3/1 32/4/1
f 33/1/1 35/2/1 36/3/1 34/4/1
f 35/1/1 37/2/1 38/3/1 36/4/1
f 37/1/1 39/2/1 40/3/1 38/4/1
f 39/1/1 41/2/1 42/3/1 40/4/1
f 41/1/1 43/2/1 44/3/1 42/4/1
f 45/1/1 46/2/1 2/3/1 1/4/1
f 46/1/1 47/2/1 5/3/1 2/4/1
f 47/1/1 48/2/1 7/3/1 5/4/1
f 48/1/1 49/2/1 9/3/1 7/4/1
f 49/1/1 50/2/1 11/3/1 9/4/1
f 50/1/1 51/2/1 13/3/1 11/4/1
f 51/1/1 52/2/1 15/3/1 13/4/1
f 52/1/1 53/2/1 17/3/1 15/4/1
f 53/1/1 54/2/1 19/3/1 17/4/1
f 54/1/1 55/2/1 21/3/1 19/4/1
f 55/1/1 56/2/1 23/3/1 21/4/1
f 56/1/1 57/2/1 25/3/1 23/4/1
f 57/1/1 58/2/1 27/3/1 25/4/1
f 58/1/1 59/2/1 29/3/1 27/4/1
f 59/1/1 60/2/1 31/3/1 29/4/1
f 60/1/1 61/2/1 33/3/1 31/4/1
f 61/1/1 62/2/1 35/3/1 33/4/1
f 62/1/1 63/2/1 37/3/1 35/4/1
f 63/1/1 64/2/1 39/3/1 37/4/1
f 64/1/1 65/2/1 41/3/1 39/4/1
f 65/1/1 66/2/1 43/3/1 41/4/1
f 67/1/1 68/2/1 46/3/1 45/4/1
f 68/1/1 69/2/1 47/3/1 46/4/1
f 69/1/1 70/2/1 48/3/1 47/4/1
f 70/1/1 71/2/1 49/3/1 48/4/1
f 71/1/1 72/2/1 50/3/1 49/4/1
f 72/1/1 73/2/1 51/3/1 50/4/1
f 73/1/1 74/2/1 52/3/1 51/4/1
f 74/1/1 75/2/1 53/3/1 52/4/1
f 75/1/1 76/2/1 54/3/1 53/4/1
f 76/1/1 77/2/1 55/3/1 54/4/1
f 77/1/1 78/2/1 56/3/1 55/4/1
f 78/1/1 79/2/1 57/3/1 56/4/1
f 79/1/1 80/2/1 58/3/1 57/4/1
f 80/1/1 81/2/1 59/3/1 58/4/1
f 81/1/1 82/2/1 60/3/1 59/4/1
f 82/1/1 83/2/1 61/3/1 60/4/1
f 83/1/1 84/2/1 62/3/1 61/4/1
f 84/1/1 85/2/1 63/3/1 62/4/1
f 85/1/1 86/2/1 64/3/1 63/4/1
f 86/1/1 87/2/1 65/3/1 64/4/1
f 87/1/1 88/2/1 66/3/1 65/4/1
f 89/1/1 90/2/1 68/3/1 67/4/1
f 90/1/1 91/2/1 69/3/1 68/4/1
f 91/1/1 92/2/1 70/3/1 69/4/1
f 92/1/1 93/2/1 71/3/1 70/4/1
f 93/1/1 94/2/1 72/3/1 71/4/1
f 94/1/1 95/2/1 73/3/1 72/4/1
f 95/1/1 96/2/1 74/3/1 73/4/1
f 96/1/1 97/2/1 75/3/1 74/4/1
f 97/1/1 98/2/1 76/3/1 75/4/1
f 98/1/1 99/2/1 77/3/1 76/4/1
f 99/1/1 100/2/1 78/3/1 77/4/1
f 100/1/1 101/2/1 79/3/1 78/4/1
f 101/1/1 102/2/1 80/3/1 79/4/1
f 102/1/1 103/2/1 81/3/1 80/4/1
f 103/1/1 104/2/1 82/3/1 81/4/1
f 104/1/1 105/2/1 83/3/1 82/4/1
f 105/1/1 106/2/1 84/3/1 83/4/1
f 106/1/1 107/2/1 85/3/1 84/4/1
f 107/1/1 108/2/1 86/3/1 85/4/1
f 108/1/1 109/2/1 87/3/1 86/4/1
f 109/1/1 110/2/1 88/3/1 87/4/1
f 111/1/1 112/2/1 90/3/1 89/4/1
f 112/1/1 113/2/1 91/3/1 90/4/1
f 113/1/1 114/2/1 92/3/1 91/4/1
f 114/1/1 115/2/1 93/3/1 92/4/1
f 115/1/1 116/2/1 94/3/1 93/4/1
f 116/1/1 117/2/1 95/3/1 94/4/1
f 117/1/1 118/2/1 96/3/1 95/4/1
f 118/1/1 119/2/1 97/3/1 96/4/1
f 119/1/1 120/2/1 98/3/1 97/4/1
f 120/1/1 121/2/1 99/3/1 98/4/1
f 121/1/1 122/2/1 100/3/1 99/4/1
f 122/1/1 123/2/1 101/3/1 100/4/1
f 123/1/1 124/2/1 102/3/1 101/4/1
f 124/1/1 125/2/1 103/3/1 102/4/1
f 125/1/1 126/2/1 104/3/1 103/4/1
f 126/1/1 127/2/1 105/3/1 104/4/1
f 127/1/1 128/2/1 106/3/1 105/4/1
f 128/1/1 129/2/1 107/3/1 106/4/1
f 129/1/1 130/2/1 108/3/1 107/4/1
f 130/1/1 131/2/1 109/3/1 108/4/1
f 131/1/1 132/2/1 110/3/1 109/4/1
f 133/1/1 134/2/1 112/3/1 111/4/1
f 134/1/1 135/2/1 113/3/1 112/4/1
f 135/1/1 136/2/1 114/3/1 113/4/1
f 136/1/1 137/2/1 115/3/1 114/4/1
f 137/1/1 138/2/1 116/3/1 115/4/1
f 138/1/1 139/2/1 117/3/1 116/4/1
f 139/1/1 140/2/1 118/3/1 117/4/1
f 140/1/1 141/2/1 119/3/1 118/4/1
f 141/1/1 142/2/1 120/3/1 119/4/1
f 142/1/1 143/2/1 121/3/1 120/4/1
f 143/1/1 144/2/1 122/3/1 121/4/1
f 144/1/1 145/2/1 123/3/1 122/4/1
f 145/1/1 146/2/1 124/3/1 123/4/1
f 146/1/1 147/2/1 125/3/1 124/4/1
f 147/1/1 148/2/1 126/3/1 125/4/1
f 148/1/1 149/2/1 127/3/1 126/4/1
f 149/1/1 150/2/1 128/3/1 127/4/1
f 150/1/1 151/2/1 129/3/1 128/4/1
f 151/1/1 152/2/1 130/3/1 129/4/1
f 152/1/1 153/2/1 131/3/1 130/4/1
f 153/1/1 154/2/1 132/3/1 131/4/1
f 155/1/1 156/2/1 134/3/1 133/4/1
f 156/1/1 157/2/1 135/3/1 134/4/1
f 157/1/1 158/2/1 136/3/1 135/4/1
f 158/1/1 159/2/1 137/3/1 136/4/1
f 159/1/1 160/2/1 138/3/1 137/4/1
f 160/1/1 161/2/1 139/3/1 138/4/1
f 161/1/1 162/2/1 140/3/1 139/4/1
f 162/1/1 163/2/1 141/3/1 140/4/1
f 163/1/1 164/2/1 142/3/1 141/4/1
f 164/1/1 165/2/1 143/3/1 142/4/1
f 165/1/1 166/2/1 144/3/1 143/4/1
f 166/1/1 167/2/1 145/3/1 144/4/1
f 167/1/1 168/2/1 146/3/1 145/4/1
f 168/1/1 169/2/1 147/3/1 146/4/1
f 169/1/1 170/2/1 148/3/1 147/4/1
f 170/1/1 171/2/1 149/3/1 148/4/1
f 171/1/1 172/2/1 150/3/1 149/4/1
f 172/1/1 173/2/1 151/3/1 150/4/1
f 173/1/1 174/2/1 152/3/1 151/4/1
f 174/1/1 175/2/1 153/3/1 152/4/1
f 175/1/1 176/2/1 154/3/1 153/4/1
f 177/1/1 178/2/1 156/3/1 155/4/1
f 178/1/1 179/2/1 157/3/1 156/4/1
f 179/1/1 180/2/1 158/3/1 157/4/1
f 180/1/1 181/2/1 159/3/1 158/4/1
f 181/1/1 182/2/1 160/3/1 159/4/1
f 182/1/1 183/2/1 161/3/1 160/4/1
f 183/1/1 184/2/1 162/3/1 161/4/1
f 184/1/1 185/2/1 163/3/1 162/4/1
f 185/1/1 186/2/1 164/3/1 163/4/1
f 186/1/1 187/2/1 165/3/1 164/4/1
f 187/1/1 188/2/1 166/3/1 165/4/1
f 188/1/1 189/2/1 167/3/1 166/4/1
f 189/1/1 190/2/1 168/3/1 167/4/1
f 190/1/1 191/2/1 169/3/1 168/4/1
f 191/1/1 192/2/1 170/3/1 169/4/1
f 192/1/1 193/2/1 171/3/1 170/4/1
f 193/1/1 194/2/1 172/3/1 171/4/1
f 194/1/1 195/2/1 173/3/1 172/4/1
f 195/1/1 196/2/1 174/3/1 173/4/1
f 196/1/1 197/2/1 175/3/1 174/4/1
f 197/1/1 198/2/1 176/3/1 175/4/1
f 199/1/1 200/2/1 178/3/1 177/4/1
f 200/1/1 201/2/1 179/3/1 178/4/1
f 201/1/1 202/2/1 180/3/1 179/4/1
f 202/1/1 203/2/1 181/3/1 180/4/1
f 203/1/1 204/2/1 182/3/1 181/4/1
f 204/1/1 205/2/1 183/3/1 182/4/1
f 205/1/1 206/2/1 184/3/1 183/4/1
f 206/1/1 207/2/1 185/3/1 184/4/1
f 207/1/1 208/2/1 186/3/1 185/4/1
f 208/1/1 209/2/1 187/3/1 186/4/1
f 209/1/1 210/2/1 188/3/1 187/4/1
f 210/1/1 211/2/1 189/3/1 188/4/1
f 211/1/1 212/2/1 190/3/1 189/4/1
f 212/1/1 213/2/1 191/3/1 190/4/1
f 213/1/1 214/2/1 192/3/1 191/4/1
f 214/1/1 215/2/1 193/3/1 192/4/1
f 215/1/1 216/2/1 194/3/1 193/4/1
f 216/1/1 217/2/1 195/3/1 194/4/1
f 217/1/1 218/2/1 196/3/1 195/4/1
f 218/1/1 219/2/1 197/3/1 196/4/1
f 219/1/1 220/2/1 198/3/1 197/4/1
f 221/1/1 222/2/1 200/3/1 199/4/1
f 222/1/1 223/2/1 201/3/1 200/4/1
f 223/1/1 224/2/1 202/3/1 201/4/1
f 224/1/1 225/2/1 203/3/1 202/4/1
f 225/1/1 226/2/1 204/3/1 203/4/1
f 226/1/1 227/2/1 205/3/1 204/4/1
f 227/1/1 228/2/1 206/3/1 205/4/1
f 228/1/1 229/2/1 207/3/1 206/4/1
f 229/1/1 230/2/1 208/3/1 207/4/1
f 230/1/1 231/2/1 209/3/1 208/4/1
f 231/1/1 232/2/1 210/3/1 209/4/1
f 232/1/1 233/2/1 211/3/1 210/4/1
f 233/1/1 234/2/1 212/3/1 211/4/1
f 234/1/1 235/2/1 213/3/1 212/4/1
f 235/1/1 236/2/1 214/3/1 213/4/1
f 236/1/1 237/2/1 215/3/1 214/4/1
f 237/1/1 238/2/1 216/3/1 215/4/1
f 238/1/1 239/2/1 217/3/1 216/4/1
f 239/1/1 240/2/1 218/3/1 217/4/1
f 240/1/1 241/2/1 219/3/1 218/4/1
f 241/1/1 242/2/1 220/3/1 219/4/1
f 243/1/1 244/2/1 222/3/1 221/4/1
f 244/1/1 245/2/1 223/3/1 222/4/1
f 245/1/1 246/2/1 224/3/1 223/4/1
f 246/1/1 247/2/1 225/3/1 224/4/1
f 247/1/1 248/2/1 226/3/1 225/4/1
f 248/1/1 249/2/1 227/3/1 226/4/1
f 249/1/1 250/2/1 228/3/1 227/4/1
f 250/1/1 251/2/1 229/3/1 228/4/1
f 251/1/1 252/2/1 230/3/1 229/4/1
f 252/1/1 253/2/1 231/3/1 230/4/1
f 253/1/1 254/2/1 232/3/1 231/4/1
f 254/1/1 255/2/1 233/3/1 232/4/1
f 255/1/1 256/2/1 234/3/1 233/4/1
f 256/1/1 257/2/1 235/3/1 234/4/1
f 257/1/1 258/2/1 236/3/1 235/4/1
f 258/1/1 259/2/1 237/3/1 236/4/1
f 259/1/1 260/2/1 238/3/1 237/4/1
f 260/1/1 261/2/1 239/3/1 238/4/1
f 261/1/1 262/2/1 240/3/1 239/4/1
f 262/1/1 263/2/1 241/3/1 240/4/1
f 263/1/1 264/2/1 242/3/1 241/4/1
f 265/1/1 266/2/1 244/3/1 243/4/1
f 266/1/1 267/2/1 245/3/1 244/4/1
f 267/1/1 268/2/1 246/3/1 245/4/1
f 268/1/1 269/2/1 247/3/1 246/4/1
f 269/1/1 270/2/1 248/3/1 247/4/1
f 270/1/1 271/2/1 249/3/1 248/4/1
f 271/1/1 272/2/1 250/3/1 249/4/1
f 272/1/1 273/2/1 251/3/1 250/4/1
f 273/1/1 274/2/1 252/3/1 251/4/1
f 274/1/1 275/2/1 253/3/1 252/4/1
f 275/1/1 276/2/1 254/3/1 253/4/1
f 276/1/1 277/2/1 255/3/1 254/4/1
f 277/1/1 278/2/1 256/3/1 255/4/1
f 278/1/1 279/2/1 257/3/1 256/4/1
f 279/1/1 280/2/1 258/3/1 257/4/1
f 280/1/1 281/2/1 259/3/1 258/4/1
f 281/1/1 282/2/1 260/3/1 259/4/1
f 282/1/1 283/2/1 261/3/1 260/4/1
f 283/1/1 284/2/1 262/3/1 261/4/1
f 284/1/1 285/2/1 263/3/1 262/4/1
f 285/1/1 286/2/1 264/3/1 263/4/1

g mesh_0002
f 252/5/1 253/6/1 231/7/1 230/8/1
f 274/9/1 275/10/1 253/11/1 252/12/1

g mesh_0003
f 1/13/1 2/14/1 3/15/1 4/16/1
f 2/13/1 5/14/1 6/15/1 3/16/1
f 5/13/1 7/14/1 8/15/1 6/16/1
f 7/13/1 9/14/1 10/15/1 8/16/1
f 9/13/1 11/14/1 12/15/1 10/16/1
f 11/13/1 13/14/1 14/15/1 12/16/1
f 13/13/1 15/14/1 16/15/1 14/16/1
f 15/13/1 17/14/1 18/15/1 16/16/1
f 17/13/1 19/14/1 20/15/1 18/16/1
f 19/13/1 21/14/1 22/15/1 20/16/1
f 21/13/1 23/14/1 24/15/1 22/16/1
f 23/13/1 25/14/1 26/15/1 24/16/1
f 25/13/1 27/14/1 28/15/1 26/16/1
f 27/13/1 29/14/1 30/15/1 28/16/1
f 29/13/1 31/14/1 32/15/1 30/16/1
f 31/13/1 33/14/1 34/15/1 32/16/1
f 33/13/1 35/14/1 36/15/1 34/16/1
f 35/13/1 37/14/1 38/15/1 36/16/1
f 37/13/1 39/14/1 40/15/1 38/16/1
f 39/13/1 41/14/1 42/15/1 40/16/1
f 41/13/1 43/14/1 44/15/1 42/16/1
f 45/17/1 46/18/1 2/19/1 1/20/1
f 54/17/1 55/18/1 21/19/1 19/20/1
f 57/21/1 58/22/1 27/23/1 25/24/1
f 58/25/1 59/26/1 29/27/1 27/28/1
f 59/29/1 60/30/1 31/31/1 29/32/1
f 65/17/1 66/18/1 43/19/1 41/20/1
f 67/17/1 68/18/1 46/19/1 45/20/1
f 76/17/1 77/18/1 55/19/1 54/20/1
f 79/33/1 80/34/1 58/35/1 57/36/1
f 80/37/1 81/38/1 59/39/1 58/40/1
f 87/17/1 88/18/1 66/19/1 65/20/1
f 89/17/1 90/18/1 68/19/1 67/20/1
f 98/17/1 99/18/1 77/19/1 76/20/1
f 101/41/1 102/42/1 80/43/1 79/44/1
f 102/45/1 103/46/1 81/47/1 80/48/1
f 109/17/1 110/18/1 88/19/1 87/20/1
f 111/17/1 112/18/1 90/19/1 89/20/1
f 120/17/1 121/18/1 99/19/1 98/20/1
f 131/17/1 132/18/1 110/19/1 109/20/1
f 133/17/1 134/18/1 112/19/1 111/20/1
f 142/17/1 143/18/1 121/19/1 120/20/1
f 153/17/1 154/18/1 132/19/1 131/20/1
f 155/17/1 156/18/1 134/19/1 133/20/1
f 164/17/1 165/18/1 143/19/1 142/20/1
f 165/17/1 166/18/1 144/19/1 143/20/1
f 166/17/1 167/18/1 145/19/1 144/20/1
f 167/17/1 168/18/1 146/19/1 145/20/1
f 168/17/1 169/18/1 147/19/1 146/20/1
f 169/17/1 170/18/1 148/19/1 147/20/1
f 170/17/1 171/18/1 149/19/1 148/20/1
f 171/17/1 172/18/1 150/19/1 149/20/1
f 172/17/1 173/18/1 151/19/1 150/20/1
f 175/17/1 176/18/1 154/19/1 153/20/1
f 177/17/1 178/18/1 156/19/1 155/20/1
f 197/17/1 198/18/1 176/19/1 175/20/1
f 199/17/1 200/18/1 178/19/1 177/20/1
f 219/17/1 220/18/1 198/19/1 197/20/1
f 221/17/1 222/18/1 200/19/1 199/20/1
f 241/17/1 242/18/1 220/19/1 219/20/1
f 243/17/1 244/18/1 222/19/1 221/20/1
f 263/17/1 264/18/1 242/19/1 241/20/1
f 265/49/1 266/50/1 244/51/1 243/52/1
f 266/49/1 267/50/1 245/51/1 244/52/1
f 267/49/1 268/50/1 246/51/1 245/52/1
f 268/49/1 269/50/1 247/51/1 246/52/1
f 269/49/1 270/50/1 248/51/1 247/52/1
f 270/49/1 271/50/1 249/51/1 248/52/1
f 271/49/1 272/50/1 250/51/1 249/52/1
f 272/49/1 273/50/1 251/51/1 250/52/1
f 273/49/1 274/50/1 252/51/1 251/52/1
f 275/49/1 276/50/1 254/51/1 253/52/1
f 276/49/1 277/50/1 255/51/1 254/52/1
f 277/49/1 278/50/1 256/51/1 255/52/1
f 278/49/1 279/50/1 257/51/1 256/52/1
f 279/49/1 280/50/1 258/51/1 257/52/1
f 280/49/1 281/50/1 259/51/1 258/52/1
f 281/49/1 282/50/1 260/51/1 259/52/1
f 282/49/1 283/50/1 261/51/1 260/52/1
f 283/49/1 284/50/1 262/51/1 261/52/1
f 284/49/1 285/50/1 263/51/1 262/52/1
f 285/49/1 286/50/1 264/51/1 263/52/1

g mesh_0004
f 92/53/1 93/54/1 71/55/1 70/56/1
f 136/53/1 137/54/1 115/55/1 114/56/1

g mesh_0005
f 37/57/1 39/58/1 40/59/1 38/60/1
f 56/61/1 57/62/1 25/63/1 23/64/1
f 63/65/1 64/66/1 39/67/1 37/68/1
f 71/69/1 72/70/1 50/71/1 49/72/1
f 72/73/1 73/74/1 51/75/1 50/76/1
f 77/77/1 78/78/1 56/79/1 55/80/1
f 85/81/1 86/82/1 64/83/1 63/84/1
f 93/85/1 94/86/1 72/87/1 71/88/1
f 94/89/1 95/90/1 73/91/1 72/92/1
f 99/77/1 100/78/1 78/79/1 77/80/1
f 115/85/1 116/86/1 94/87/1 93/88/1
f 116/89/1 117/90/1 95/91/1 94/92/1
f 137/93/1 138/94/1 116/95/1 115/96/1
f 138/97/1 139/98/1 117/99/1 116/100/1

g mesh_0006
f 46/101/1 47/102/1 5/103/1 2/104/1
f 68/105/1 69/106/1 47/107/1 46/108/1
f 90/109/1 91/110/1 69/111/1 68/112/1
f 112/113/1 113/114/1 91/115/1 90/116/1
f 115/117/1 116/118/1 94/119/1 93/120/1

