# Wavefront OBJ file automatically generated by Tiled2Unity

# Vertices (Count = 255)
v 0 -4 0
v -1 -4 0
v -1 -3 0
v 0 -3 0
v -2 -4 0
v -2 -3 0
v -3 -4 0
v -3 -3 0
v -4 -4 0
v -4 -3 0
v -5 -4 0
v -5 -3 0
v -6 -4 0
v -6 -3 0
v -7 -4 0
v -7 -3 0
v -8 -4 0
v -8 -3 0
v -9 -4 0
v -9 -3 0
v -10 -4 0
v -10 -3 0
v -11 -4 0
v -11 -3 0
v -12 -4 0
v -12 -3 0
v -13 -4 0
v -13 -3 0
v -14 -4 0
v -14 -3 0
v -15 -4 0
v -15 -3 0
v -16 -4 0
v -16 -3 0
v 0 -5 0
v -1 -5 0
v -2 -5 0
v -3 -5 0
v -4 -5 0
v -5 -5 0
v -6 -5 0
v -7 -5 0
v -8 -5 0
v -9 -5 0
v -10 -5 0
v -11 -5 0
v -12 -5 0
v -13 -5 0
v -14 -5 0
v -15 -5 0
v -16 -5 0
v 0 -6 0
v -1 -6 0
v -2 -6 0
v -3 -6 0
v -4 -6 0
v -5 -6 0
v -6 -6 0
v -7 -6 0
v -8 -6 0
v -9 -6 0
v -10 -6 0
v -11 -6 0
v -12 -6 0
v -13 -6 0
v -14 -6 0
v -15 -6 0
v -16 -6 0
v 0 -7 0
v -1 -7 0
v -2 -7 0
v -3 -7 0
v -4 -7 0
v -5 -7 0
v -6 -7 0
v -9 -7 0
v -10 -7 0
v -11 -7 0
v -12 -7 0
v -13 -7 0
v -14 -7 0
v -15 -7 0
v -16 -7 0
v 0 -8 0
v -1 -8 0
v -2 -8 0
v -3 -8 0
v -4 -8 0
v -5 -8 0
v -10 -8 0
v -11 -8 0
v -12 -8 0
v -13 -8 0
v -14 -8 0
v -15 -8 0
v -16 -8 0
v 0 -9 0
v -1 -9 0
v -2 -9 0
v -3 -9 0
v -4 -9 0
v -5 -9 0
v -10 -9 0
v -11 -9 0
v -12 -9 0
v -13 -9 0
v -14 -9 0
v -15 -9 0
v -16 -9 0
v 0 -10 0
v -1 -10 0
v -2 -10 0
v -3 -10 0
v -4 -10 0
v -5 -10 0
v -10 -10 0
v -11 -10 0
v -12 -10 0
v -13 -10 0
v -14 -10 0
v -15 -10 0
v -16 -10 0
v 0 -11 0
v -1 -11 0
v -2 -11 0
v -3 -11 0
v -4 -11 0
v -5 -11 0
v -10 -11 0
v -11 -11 0
v -12 -11 0
v -13 -11 0
v -14 -11 0
v -15 -11 0
v -16 -11 0
v 0 -12 0
v -1 -12 0
v -2 -12 0
v -3 -12 0
v -4 -12 0
v -5 -12 0
v -10 -12 0
v -11 -12 0
v -12 -12 0
v -13 -12 0
v -14 -12 0
v -15 -12 0
v -16 -12 0
v 0 -13 0
v -1 -13 0
v -2 -13 0
v -3 -13 0
v -4 -13 0
v -5 -13 0
v -6 -13 0
v -6 -12 0
v -7 -13 0
v -7 -12 0
v -8 -13 0
v -8 -12 0
v -9 -13 0
v -9 -12 0
v -10 -13 0
v -11 -13 0
v -12 -13 0
v -13 -13 0
v -14 -13 0
v -15 -13 0
v -16 -13 0
v 0 -14 0
v -1 -14 0
v -2 -14 0
v -3 -14 0
v -4 -14 0
v -5 -14 0
v -6 -14 0
v -7 -14 0
v -8 -14 0
v -9 -14 0
v -10 -14 0
v -11 -14 0
v -12 -14 0
v -13 -14 0
v -14 -14 0
v -15 -14 0
v -16 -14 0
v 0 -15 0
v -1 -15 0
v -2 -15 0
v -3 -15 0
v -4 -15 0
v -5 -15 0
v -6 -15 0
v -7 -15 0
v -8 -15 0
v -9 -15 0
v -10 -15 0
v -11 -15 0
v -12 -15 0
v -13 -15 0
v -14 -15 0
v -15 -15 0
v -16 -15 0
v 0 -16 0
v -1 -16 0
v -2 -16 0
v -3 -16 0
v -4 -16 0
v -5 -16 0
v -6 -16 0
v -7 -16 0
v -8 -16 0
v -9 -16 0
v -10 -16 0
v -11 -16 0
v -12 -16 0
v -13 -16 0
v -14 -16 0
v -15 -16 0
v -16 -16 0
v 0 -17 0
v -1 -17 0
v -2 -17 0
v -3 -17 0
v -4 -17 0
v -5 -17 0
v -6 -17 0
v -7 -17 0
v -8 -17 0
v -9 -17 0
v -10 -17 0
v -11 -17 0
v -12 -17 0
v -13 -17 0
v -14 -17 0
v -15 -17 0
v -16 -17 0
v -6 -10 0
v -6 -9 0
v -7 -10 0
v -7 -9 0
v -8 -10 0
v -8 -9 0
v -9 -10 0
v -9 -9 0
v -6 -11 0
v -7 -11 0
v -8 -11 0
v -9 -11 0
v -7 -7 0
v -8 -7 0
v -6 -8 0
v -7 -8 0
v -8 -8 0
v -9 -8 0

# Texture cooridinates (Count = 184)
vt 0.6875038 0.6875038
vt 0.7187462 0.6875038
vt 0.7187462 0.7187462
vt 0.6875038 0.7187462
vt 0.6875038 0.6250038
vt 0.7187462 0.6250038
vt 0.7187462 0.6562462
vt 0.6875038 0.6562462
vt 0.1250038 0.1875038
vt 0.1562462 0.1875038
vt 0.1562462 0.2187462
vt 0.1250038 0.2187462
vt 0.6875038 0.8125038
vt 0.7187462 0.8125038
vt 0.7187462 0.8437462
vt 0.6875038 0.8437462
vt 0.6875038 0.8750038
vt 0.7187462 0.8750038
vt 0.7187462 0.9062462
vt 0.6875038 0.9062462
vt 0.7187538 0.8125038
vt 0.7499962 0.8125038
vt 0.7499962 0.8437462
vt 0.7187538 0.8437462
vt 3.814697E-06 0.6875038
vt 0.03124619 0.6875038
vt 0.03124619 0.7187462
vt 3.814697E-06 0.7187462
vt 0.03125381 0.6875038
vt 0.06249619 0.6875038
vt 0.06249619 0.7187462
vt 0.03125381 0.7187462
vt 0.06250381 0.6875038
vt 0.09374619 0.6875038
vt 0.09374619 0.7187462
vt 0.06250381 0.7187462
vt 3.814697E-06 0.6562538
vt 0.03124619 0.6562538
vt 0.03124619 0.6874962
vt 3.814697E-06 0.6874962
vt 0.03125381 0.6562538
vt 0.06249619 0.6562538
vt 0.06249619 0.6874962
vt 0.03125381 0.6874962
vt 0.06250381 0.6562538
vt 0.09374619 0.6562538
vt 0.09374619 0.6874962
vt 0.06250381 0.6874962
vt 3.814697E-06 0.6250038
vt 0.03124619 0.6250038
vt 0.03124619 0.6562462
vt 3.814697E-06 0.6562462
vt 0.03125381 0.6250038
vt 0.06249619 0.6250038
vt 0.06249619 0.6562462
vt 0.03125381 0.6562462
vt 0.06250381 0.6250038
vt 0.09374619 0.6250038
vt 0.09374619 0.6562462
vt 0.06250381 0.6562462
vt 3.814697E-06 0.7187538
vt 0.03124619 0.7187538
vt 0.03124619 0.7499962
vt 3.814697E-06 0.7499962
vt 3.814697E-06 0.8125038
vt 0.03124619 0.8125038
vt 0.03124619 0.8437462
vt 3.814697E-06 0.8437462
vt 0.03125381 0.8125038
vt 0.06249619 0.8125038
vt 0.06249619 0.8437462
vt 0.03125381 0.8437462
vt 0.06250381 0.8125038
vt 0.09374619 0.8125038
vt 0.09374619 0.8437462
vt 0.06250381 0.8437462
vt 3.814697E-06 0.7812538
vt 0.03124619 0.7812538
vt 0.03124619 0.8124962
vt 3.814697E-06 0.8124962
vt 0.03125381 0.7187538
vt 0.06249619 0.7187538
vt 0.06249619 0.7499962
vt 0.03125381 0.7499962
vt 0.06250381 0.7812538
vt 0.09374619 0.7812538
vt 0.09374619 0.8124962
vt 0.06250381 0.8124962
vt 3.814697E-06 0.7500038
vt 0.03124619 0.7500038
vt 0.03124619 0.7812462
vt 3.814697E-06 0.7812462
vt 0.03125381 0.7500038
vt 0.06249619 0.7500038
vt 0.06249619 0.7812462
vt 0.03125381 0.7812462
vt 0.06250381 0.7500038
vt 0.09374619 0.7500038
vt 0.09374619 0.7812462
vt 0.06250381 0.7812462
vt 0.2500038 0.6875038
vt 0.2812462 0.6875038
vt 0.2812462 0.7187462
vt 0.2500038 0.7187462
vt 0.2500038 0.6562538
vt 0.2812462 0.6562538
vt 0.2812462 0.6874962
vt 0.2500038 0.6874962
vt 0.1250038 0.6875038
vt 0.1562462 0.6875038
vt 0.1562462 0.7187462
vt 0.1250038 0.7187462
vt 0.1250038 0.6562538
vt 0.1562462 0.6562538
vt 0.1562462 0.6874962
vt 0.1250038 0.6874962
vt 0.3750038 0.6250038
vt 0.4062462 0.6250038
vt 0.4062462 0.6562462
vt 0.3750038 0.6562462
vt 0.3750038 0.5937538
vt 0.4062462 0.5937538
vt 0.4062462 0.6249962
vt 0.3750038 0.6249962
vt 0.8125038 3.814697E-06
vt 0.8437462 3.814697E-06
vt 0.8437462 0.03124619
vt 0.8125038 0.03124619
vt 0.9062538 0.09375381
vt 0.9374962 0.09375381
vt 0.9374962 0.1249962
vt 0.9062538 0.1249962
vt 0.9375038 0.09375381
vt 0.9687462 0.09375381
vt 0.9687462 0.1249962
vt 0.9375038 0.1249962
vt 0.9687538 0.09375381
vt 0.9999962 0.09375381
vt 0.9999962 0.1249962
vt 0.9687538 0.1249962
vt 0.9062538 0.06250381
vt 0.9374962 0.06250381
vt 0.9374962 0.09374619
vt 0.9062538 0.09374619
vt 0.9375038 0.06250381
vt 0.9687462 0.06250381
vt 0.9687462 0.09374619
vt 0.9375038 0.09374619
vt 0.9687538 0.06250381
vt 0.9999962 0.06250381
vt 0.9999962 0.09374619
vt 0.9687538 0.09374619
vt 0.9062538 0.03125381
vt 0.9374962 0.03125381
vt 0.9374962 0.06249619
vt 0.9062538 0.06249619
vt 0.9375038 0.03125381
vt 0.9687462 0.03125381
vt 0.9687462 0.06249619
vt 0.9375038 0.06249619
vt 0.9687538 0.03125381
vt 0.9999962 0.03125381
vt 0.9999962 0.06249619
vt 0.9687538 0.06249619
vt 0.9062538 3.814697E-06
vt 0.9374962 3.814697E-06
vt 0.9374962 0.03124619
vt 0.9062538 0.03124619
vt 0.9375038 3.814697E-06
vt 0.9687462 3.814697E-06
vt 0.9687462 0.03124619
vt 0.9375038 0.03124619
vt 0.9687538 3.814697E-06
vt 0.9999962 3.814697E-06
vt 0.9999962 0.03124619
vt 0.9687538 0.03124619
vt 0.2187538 0.8125038
vt 0.2499962 0.8125038
vt 0.2499962 0.8437462
vt 0.2187538 0.8437462
vt 0.2187538 0.7812538
vt 0.2499962 0.7812538
vt 0.2499962 0.8124962
vt 0.2187538 0.8124962

# Normal
vn 0 0 -1

# Groups (Count = 7)

g mesh_0001
f 1/1/1 2/2/1 3/3/1 4/4/1
f 2/1/1 5/2/1 6/3/1 3/4/1
f 5/1/1 7/2/1 8/3/1 6/4/1
f 7/1/1 9/2/1 10/3/1 8/4/1
f 9/1/1 11/2/1 12/3/1 10/4/1
f 11/1/1 13/2/1 14/3/1 12/4/1
f 13/1/1 15/2/1 16/3/1 14/4/1
f 15/5/1 17/6/1 18/7/1 16/8/1
f 17/1/1 19/2/1 20/3/1 18/4/1
f 19/1/1 21/2/1 22/3/1 20/4/1
f 21/1/1 23/2/1 24/3/1 22/4/1
f 23/1/1 25/2/1 26/3/1 24/4/1
f 25/1/1 27/2/1 28/3/1 26/4/1
f 27/1/1 29/2/1 30/3/1 28/4/1
f 29/1/1 31/2/1 32/3/1 30/4/1
f 31/1/1 33/2/1 34/3/1 32/4/1
f 35/1/1 36/2/1 2/3/1 1/4/1
f 36/9/1 37/10/1 5/11/1 2/12/1
f 37/13/1 38/14/1 7/15/1 5/16/1
f 38/13/1 39/14/1 9/15/1 7/16/1
f 39/9/1 40/10/1 11/11/1 9/12/1
f 40/17/1 41/18/1 13/19/1 11/20/1
f 41/5/1 42/6/1 15/7/1 13/8/1
f 42/17/1 43/18/1 17/19/1 15/20/1
f 43/5/1 44/6/1 19/7/1 17/8/1
f 44/1/1 45/2/1 21/3/1 19/4/1
f 45/1/1 46/2/1 23/3/1 21/4/1
f 46/13/1 47/14/1 25/15/1 23/16/1
f 47/13/1 48/14/1 27/15/1 25/16/1
f 48/17/1 49/18/1 29/19/1 27/20/1
f 49/9/1 50/10/1 31/11/1 29/12/1
f 50/1/1 51/2/1 33/3/1 31/4/1
f 52/1/1 53/2/1 36/3/1 35/4/1
f 53/17/1 54/18/1 37/19/1 36/20/1
f 54/17/1 55/18/1 38/19/1 37/20/1
f 55/17/1 56/18/1 39/19/1 38/20/1
f 56/17/1 57/18/1 40/19/1 39/20/1
f 57/5/1 58/6/1 41/7/1 40/8/1
f 58/17/1 59/18/1 42/19/1 41/20/1
f 60/17/1 61/18/1 44/19/1 43/20/1
f 61/5/1 62/6/1 45/7/1 44/8/1
f 62/1/1 63/2/1 46/3/1 45/4/1
f 63/1/1 64/2/1 47/3/1 46/4/1
f 64/1/1 65/2/1 48/3/1 47/4/1
f 65/17/1 66/18/1 49/19/1 48/20/1
f 66/17/1 67/18/1 50/19/1 49/20/1
f 67/1/1 68/2/1 51/3/1 50/4/1
f 69/1/1 70/2/1 53/3/1 52/4/1
f 70/21/1 71/22/1 54/23/1 53/24/1
f 71/21/1 72/22/1 55/23/1 54/24/1
f 72/17/1 73/18/1 56/19/1 55/20/1
f 73/5/1 74/6/1 57/7/1 56/8/1
f 74/17/1 75/18/1 58/19/1 57/20/1
f 76/17/1 77/18/1 62/19/1 61/20/1
f 77/5/1 78/6/1 63/7/1 62/8/1
f 78/21/1 79/22/1 64/23/1 63/24/1
f 79/1/1 80/2/1 65/3/1 64/4/1
f 80/17/1 81/18/1 66/19/1 65/20/1
f 81/13/1 82/14/1 67/15/1 66/16/1
f 82/1/1 83/2/1 68/3/1 67/4/1
f 84/1/1 85/2/1 70/3/1 69/4/1
f 85/17/1 86/18/1 71/19/1 70/20/1
f 86/17/1 87/18/1 72/19/1 71/20/1
f 87/13/1 88/14/1 73/15/1 72/16/1
f 88/5/1 89/6/1 74/7/1 73/8/1
f 90/5/1 91/6/1 78/7/1 77/8/1
f 91/1/1 92/2/1 79/3/1 78/4/1
f 92/1/1 93/2/1 80/3/1 79/4/1
f 93/13/1 94/14/1 81/15/1 80/16/1
f 94/17/1 95/18/1 82/19/1 81/20/1
f 95/1/1 96/2/1 83/3/1 82/4/1
f 97/1/1 98/2/1 85/3/1 84/4/1
f 98/17/1 99/18/1 86/19/1 85/20/1
f 99/17/1 100/18/1 87/19/1 86/20/1
f 100/13/1 101/14/1 88/15/1 87/16/1
f 101/5/1 102/6/1 89/7/1 88/8/1
f 103/5/1 104/6/1 91/7/1 90/8/1
f 104/21/1 105/22/1 92/23/1 91/24/1
f 105/21/1 106/22/1 93/23/1 92/24/1
f 106/13/1 107/14/1 94/15/1 93/16/1
f 107/17/1 108/18/1 95/19/1 94/20/1
f 108/1/1 109/2/1 96/3/1 95/4/1
f 110/21/1 111/22/1 98/23/1 97/24/1
f 111/13/1 112/14/1 99/15/1 98/16/1
f 112/21/1 113/22/1 100/23/1 99/24/1
f 113/17/1 114/18/1 101/19/1 100/20/1
f 114/5/1 115/6/1 102/7/1 101/8/1
f 116/5/1 117/6/1 104/7/1 103/8/1
f 117/1/1 118/2/1 105/3/1 104/4/1
f 118/1/1 119/2/1 106/3/1 105/4/1
f 119/17/1 120/18/1 107/19/1 106/20/1
f 120/13/1 121/14/1 108/15/1 107/16/1
f 121/1/1 122/2/1 109/3/1 108/4/1
f 123/1/1 124/2/1 111/3/1 110/4/1
f 124/17/1 125/18/1 112/19/1 111/20/1
f 125/13/1 126/14/1 113/15/1 112/16/1
f 126/17/1 127/18/1 114/19/1 113/20/1
f 127/5/1 128/6/1 115/7/1 114/8/1
f 129/5/1 130/6/1 117/7/1 116/8/1
f 130/1/1 131/2/1 118/3/1 117/4/1
f 131/1/1 132/2/1 119/3/1 118/4/1
f 132/9/1 133/10/1 120/11/1 119/12/1
f 133/13/1 134/14/1 121/15/1 120/16/1
f 134/1/1 135/2/1 122/3/1 121/4/1
f 136/1/1 137/2/1 124/3/1 123/4/1
f 137/21/1 138/22/1 125/23/1 124/24/1
f 138/21/1 139/22/1 126/23/1 125/24/1
f 139/17/1 140/18/1 127/19/1 126/20/1
f 140/5/1 141/6/1 128/7/1 127/8/1
f 142/5/1 143/6/1 130/7/1 129/8/1
f 143/21/1 144/22/1 131/23/1 130/24/1
f 144/1/1 145/2/1 132/3/1 131/4/1
f 145/13/1 146/14/1 133/15/1 132/16/1
f 146/17/1 147/18/1 134/19/1 133/20/1
f 147/1/1 148/2/1 135/3/1 134/4/1
f 149/1/1 150/2/1 137/3/1 136/4/1
f 150/21/1 151/22/1 138/23/1 137/24/1
f 151/13/1 152/14/1 139/15/1 138/16/1
f 152/17/1 153/18/1 140/19/1 139/20/1
f 153/5/1 154/6/1 141/7/1 140/8/1
f 154/5/1 155/6/1 156/7/1 141/8/1
f 155/1/1 157/2/1 158/3/1 156/4/1
f 157/5/1 159/6/1 160/7/1 158/8/1
f 159/5/1 161/6/1 162/7/1 160/8/1
f 161/5/1 163/6/1 142/7/1 162/8/1
f 163/5/1 164/6/1 143/7/1 142/8/1
f 164/1/1 165/2/1 144/3/1 143/4/1
f 165/21/1 166/22/1 145/23/1 144/24/1
f 166/13/1 167/14/1 146/15/1 145/16/1
f 167/17/1 168/18/1 147/19/1 146/20/1
f 168/1/1 169/2/1 148/3/1 147/4/1
f 170/1/1 171/2/1 150/3/1 149/4/1
f 171/13/1 172/14/1 151/15/1 150/16/1
f 172/13/1 173/14/1 152/15/1 151/16/1
f 173/17/1 174/18/1 153/19/1 152/20/1
f 174/1/1 175/2/1 154/3/1 153/4/1
f 175/1/1 176/2/1 155/3/1 154/4/1
f 176/1/1 177/2/1 157/3/1 155/4/1
f 177/1/1 178/2/1 159/3/1 157/4/1
f 178/1/1 179/2/1 161/3/1 159/4/1
f 179/1/1 180/2/1 163/3/1 161/4/1
f 180/1/1 181/2/1 164/3/1 163/4/1
f 181/1/1 182/2/1 165/3/1 164/4/1
f 182/1/1 183/2/1 166/3/1 165/4/1
f 183/1/1 184/2/1 167/3/1 166/4/1
f 184/13/1 185/14/1 168/15/1 167/16/1
f 185/1/1 186/2/1 169/3/1 168/4/1
f 187/1/1 188/2/1 171/3/1 170/4/1
f 188/13/1 189/14/1 172/15/1 171/16/1
f 189/9/1 190/10/1 173/11/1 172/12/1
f 190/17/1 191/18/1 174/19/1 173/20/1
f 191/1/1 192/2/1 175/3/1 174/4/1
f 192/1/1 193/2/1 176/3/1 175/4/1
f 193/1/1 194/2/1 177/3/1 176/4/1
f 194/1/1 195/2/1 178/3/1 177/4/1
f 195/1/1 196/2/1 179/3/1 178/4/1
f 196/1/1 197/2/1 180/3/1 179/4/1
f 197/1/1 198/2/1 181/3/1 180/4/1
f 198/1/1 199/2/1 182/3/1 181/4/1
f 199/1/1 200/2/1 183/3/1 182/4/1
f 200/1/1 201/2/1 184/3/1 183/4/1
f 201/13/1 202/14/1 185/15/1 184/16/1
f 202/1/1 203/2/1 186/3/1 185/4/1
f 204/1/1 205/2/1 188/3/1 187/4/1
f 205/9/1 206/10/1 189/11/1 188/12/1
f 206/13/1 207/14/1 190/15/1 189/16/1
f 207/21/1 208/22/1 191/23/1 190/24/1
f 208/1/1 209/2/1 192/3/1 191/4/1
f 209/1/1 210/2/1 193/3/1 192/4/1
f 210/1/1 211/2/1 194/3/1 193/4/1
f 211/21/1 212/22/1 195/23/1 194/24/1
f 212/1/1 213/2/1 196/3/1 195/4/1
f 213/1/1 214/2/1 197/3/1 196/4/1
f 214/21/1 215/22/1 198/23/1 197/24/1
f 215/1/1 216/2/1 199/3/1 198/4/1
f 216/21/1 217/22/1 200/23/1 199/24/1
f 217/1/1 218/2/1 201/3/1 200/4/1
f 218/9/1 219/10/1 202/11/1 201/12/1
f 219/1/1 220/2/1 203/3/1 202/4/1
f 221/1/1 222/2/1 205/3/1 204/4/1
f 222/1/1 223/2/1 206/3/1 205/4/1
f 223/1/1 224/2/1 207/3/1 206/4/1
f 224/1/1 225/2/1 208/3/1 207/4/1
f 225/1/1 226/2/1 209/3/1 208/4/1
f 226/1/1 227/2/1 210/3/1 209/4/1
f 227/1/1 228/2/1 211/3/1 210/4/1
f 228/1/1 229/2/1 212/3/1 211/4/1
f 229/1/1 230/2/1 213/3/1 212/4/1
f 230/1/1 231/2/1 214/3/1 213/4/1
f 231/1/1 232/2/1 215/3/1 214/4/1
f 232/1/1 233/2/1 216/3/1 215/4/1
f 233/1/1 234/2/1 217/3/1 216/4/1
f 234/1/1 235/2/1 218/3/1 217/4/1
f 235/1/1 236/2/1 219/3/1 218/4/1
f 236/1/1 237/2/1 220/3/1 219/4/1

g mesh_0002
f 115/25/1 238/26/1 239/27/1 102/28/1
f 238/29/1 240/30/1 241/31/1 239/32/1
f 240/29/1 242/30/1 243/31/1 241/32/1
f 242/29/1 244/30/1 245/31/1 243/32/1
f 244/33/1 116/34/1 103/35/1 245/36/1
f 128/37/1 246/38/1 238/39/1 115/40/1
f 246/41/1 247/42/1 240/43/1 238/44/1
f 247/41/1 248/42/1 242/43/1 240/44/1
f 248/41/1 249/42/1 244/43/1 242/44/1
f 249/45/1 129/46/1 116/47/1 244/48/1
f 141/49/1 156/50/1 246/51/1 128/52/1
f 156/53/1 158/54/1 247/55/1 246/56/1
f 158/53/1 160/54/1 248/55/1 247/56/1
f 160/53/1 162/54/1 249/55/1 248/56/1
f 162/57/1 142/58/1 129/59/1 249/60/1

g mesh_0003
f 42/61/1 43/62/1 17/63/1 15/64/1
f 58/65/1 59/66/1 42/67/1 41/68/1
f 59/69/1 60/70/1 43/71/1 42/72/1
f 60/73/1 61/74/1 44/75/1 43/76/1
f 74/65/1 75/66/1 58/67/1 57/68/1
f 75/77/1 250/78/1 59/79/1 58/80/1
f 250/81/1 251/82/1 60/83/1 59/84/1
f 251/85/1 76/86/1 61/87/1 60/88/1
f 76/73/1 77/74/1 62/75/1 61/76/1
f 89/77/1 252/78/1 75/79/1 74/80/1
f 252/89/1 253/90/1 250/91/1 75/92/1
f 253/93/1 254/94/1 251/95/1 250/96/1
f 254/97/1 255/98/1 76/99/1 251/100/1
f 255/85/1 90/86/1 77/87/1 76/88/1
f 102/89/1 239/90/1 252/91/1 89/92/1
f 239/93/1 241/94/1 253/95/1 252/96/1
f 241/93/1 243/94/1 254/95/1 253/96/1
f 243/93/1 245/94/1 255/95/1 254/96/1
f 245/97/1 103/98/1 90/99/1 255/100/1

g mesh_0004
f 242/101/1 244/102/1 245/103/1 243/104/1
f 248/105/1 249/106/1 244/107/1 242/108/1

g mesh_0005
f 156/109/1 158/110/1 247/111/1 246/112/1
f 155/113/1 157/114/1 158/115/1 156/116/1

g mesh_0006
f 246/117/1 247/118/1 240/119/1 238/120/1
f 156/121/1 158/122/1 247/123/1 246/124/1

g mesh_0007
f 1/125/1 2/126/1 3/127/1 4/128/1
f 31/125/1 33/126/1 34/127/1 32/128/1
f 69/129/1 70/130/1 53/131/1 52/132/1
f 70/133/1 71/134/1 54/135/1 53/136/1
f 71/137/1 72/138/1 55/139/1 54/140/1
f 80/129/1 81/130/1 66/131/1 65/132/1
f 81/133/1 82/134/1 67/135/1 66/136/1
f 82/137/1 83/138/1 68/139/1 67/140/1
f 84/141/1 85/142/1 70/143/1 69/144/1
f 85/145/1 86/146/1 71/147/1 70/148/1
f 86/149/1 87/150/1 72/151/1 71/152/1
f 92/125/1 93/126/1 80/127/1 79/128/1
f 93/141/1 94/142/1 81/143/1 80/144/1
f 94/145/1 95/146/1 82/147/1 81/148/1
f 95/149/1 96/150/1 83/151/1 82/152/1
f 97/153/1 98/154/1 85/155/1 84/156/1
f 98/157/1 99/158/1 86/159/1 85/160/1
f 99/161/1 100/162/1 87/163/1 86/164/1
f 106/153/1 107/154/1 94/155/1 93/156/1
f 107/157/1 108/158/1 95/159/1 94/160/1
f 108/161/1 109/162/1 96/163/1 95/164/1
f 110/165/1 111/166/1 98/167/1 97/168/1
f 111/169/1 112/170/1 99/171/1 98/172/1
f 112/173/1 113/174/1 100/175/1 99/176/1
f 119/165/1 120/166/1 107/167/1 106/168/1
f 120/169/1 121/170/1 108/171/1 107/172/1
f 121/173/1 122/174/1 109/175/1 108/176/1
f 123/125/1 124/126/1 111/127/1 110/128/1
f 136/129/1 137/130/1 124/131/1 123/132/1
f 137/133/1 138/134/1 125/135/1 124/136/1
f 138/137/1 139/138/1 126/139/1 125/140/1
f 149/141/1 150/142/1 137/143/1 136/144/1
f 150/145/1 151/146/1 138/147/1 137/148/1
f 151/149/1 152/150/1 139/151/1 138/152/1
f 170/153/1 171/154/1 150/155/1 149/156/1
f 171/157/1 172/158/1 151/159/1 150/160/1
f 172/161/1 173/162/1 152/163/1 151/164/1
f 180/129/1 181/130/1 164/131/1 163/132/1
f 181/133/1 182/134/1 165/135/1 164/136/1
f 182/137/1 183/138/1 166/139/1 165/140/1
f 187/165/1 188/166/1 171/167/1 170/168/1
f 188/169/1 189/170/1 172/171/1 171/172/1
f 189/173/1 190/174/1 173/175/1 172/176/1
f 197/141/1 198/142/1 181/143/1 180/144/1
f 198/145/1 199/146/1 182/147/1 181/148/1
f 199/149/1 200/150/1 183/151/1 182/152/1
f 214/153/1 215/154/1 198/155/1 197/156/1
f 215/157/1 216/158/1 199/159/1 198/160/1
f 216/161/1 217/162/1 200/163/1 199/164/1
f 221/125/1 222/126/1 205/127/1 204/128/1
f 231/165/1 232/166/1 215/167/1 214/168/1
f 232/169/1 233/170/1 216/171/1 215/172/1
f 233/173/1 234/174/1 217/175/1 216/176/1
f 234/125/1 235/126/1 218/127/1 217/128/1

g mesh_0008
f 126/177/1 127/178/1 114/179/1 113/180/1
f 130/177/1 131/178/1 118/179/1 117/180/1
f 139/181/1 140/182/1 127/183/1 126/184/1
f 143/181/1 144/182/1 131/183/1 130/184/1

